<svg width="150" height="150" viewBox="0 0 150 150" fill="none" xmlns="http://www.w3.org/2000/svg">
<path d="M74.3958 134.688C84.3521 134.688 90.0396 130.013 91.3875 123.956H57.4083C58.7562 130.013 64.4396 134.688 74.3958 134.688Z" fill="#D0CFCE"/>
<path d="M94.7916 21.6875C94.7916 21.6875 69.3124 14.4854 56.8749 24.3313C44.4395 34.1771 40.9354 56.8313 40.9354 56.8313C42.1537 61.4417 49.7395 74.525 49.7395 74.525C50.8645 76.4231 54.4333 91.1521 56.5083 99.2333H92.2791C94.0837 93.3063 101.342 70.7958 102.29 68.5875C103.506 65.7479 105.581 60.2209 106.629 58.1354C109.15 53.1167 107.75 48.8542 107.75 43.4959C107.75 32.0646 103.787 27.4 94.7891 21.6834L94.7916 21.6875Z" fill="#F19EC3"/>
<path d="M74.3958 15.0042C56.6208 15.0042 40.0208 29.0708 40.0208 46.8375C40.0208 49.0854 39.4706 56.1938 42.5562 56.1938C42.5562 56.1938 47.5416 39.8917 59.9771 30.0479C72.4125 20.2042 92.3104 22.2875 92.3104 22.2875C90.926 18.0271 80.7479 14.9979 74.4021 14.9979L74.3958 15.0042Z" fill="white"/>
<path d="M109.479 49.4792C109.479 57.7813 105.76 61.7875 101.658 71.3542C100.611 73.7958 92.8854 99.2292 92.8854 99.2292H57.1146C57.1146 99.2292 50.9041 74.9167 49.7271 72.9375C44.7896 64.6083 40.5208 58.5417 40.5208 49.4792C40.5208 30.4354 55.9583 15 75 15C94.0437 15 109.479 30.4375 109.479 49.4792Z" stroke="black" stroke-width="1.66667" stroke-miterlimit="10" stroke-linecap="round" stroke-linejoin="round"/>
<path d="M75 98.375V73.5" stroke="black" stroke-width="1.66667" stroke-miterlimit="10" stroke-linecap="round" stroke-linejoin="round"/>
<path d="M87.4375 73.5H62.5625" stroke="black" stroke-width="1.66667" stroke-miterlimit="10" stroke-linecap="round" stroke-linejoin="round"/>
<path d="M92 122.479C92 129.229 84.3937 134.702 75.0104 134.702C65.6271 134.702 58.0208 129.229 58.0208 122.479H92Z" stroke="black" stroke-width="1.41333" stroke-miterlimit="10" stroke-linecap="round" stroke-linejoin="round"/>
<path d="M58.3125 114.542L91.6875 107.312" stroke="black" stroke-width="1.6375" stroke-miterlimit="10" stroke-linecap="round" stroke-linejoin="round"/>
<path d="M79.5833 116.813L91.625 114.354" stroke="black" stroke-width="1.66667" stroke-miterlimit="10" stroke-linecap="round" stroke-linejoin="round"/>
<path d="M58.375 107.5L70.4167 105.042" stroke="black" stroke-width="1.66667" stroke-miterlimit="10" stroke-linecap="round" stroke-linejoin="round"/>
</svg>
