<svg width="150" height="150" viewBox="0 0 150 150" fill="none" xmlns="http://www.w3.org/2000/svg">
<path d="M48.0253 56.6731H29.2753V105.892H48.0253V56.6731Z" fill="#F19EC3"/>
<path d="M106.033 52.5717L98.4159 108.236C98.4159 108.236 108.963 110.872 112.185 105.013C115.408 99.1537 120.975 62.8256 120.975 62.8256C120.975 62.8256 123.318 51.3998 106.033 52.5717Z" fill="#CBEEE1"/>
<path d="M118.777 52.1087C116.363 50.03 113.288 48.8792 110.102 48.8626H89.0409V33.6546C89.0409 27.262 87.1776 22.6536 83.4921 19.9495C77.662 15.6605 69.6288 18.1068 69.286 18.2269C68.7997 18.3803 68.3747 18.6844 68.0724 19.0951C67.7701 19.5059 67.6062 20.0021 67.6044 20.512V37.5218C67.6044 43.0706 64.9677 47.7757 59.7294 51.5257C57.1823 53.3232 54.3795 54.7276 51.4149 55.6917L50.829 55.8324C50.3923 55.0885 49.7686 54.4718 49.0197 54.0437C48.2709 53.6155 47.423 53.3908 46.5604 53.3919H31.0009C29.6895 53.395 28.4327 53.9173 27.5054 54.8446C26.5781 55.772 26.0557 57.0288 26.0526 58.3402V104.102C26.0557 105.413 26.5781 106.67 27.5054 107.597C28.4327 108.525 29.6895 109.047 31.0009 109.05H46.6073C47.3339 109.049 48.0513 108.888 48.7092 108.58C49.3671 108.272 49.9496 107.823 50.4159 107.266C51.6829 108.624 53.2146 109.709 54.9166 110.453C56.6186 111.197 58.4548 111.585 60.3124 111.593H101.946C111.142 111.593 117.014 106.785 118.059 98.3685L123.45 64.929C123.82 62.5713 123.585 60.1584 122.767 57.9161C121.95 55.6739 120.577 53.6758 118.777 52.1087ZM46.7304 104.102C46.7308 104.12 46.7274 104.139 46.7205 104.156C46.7135 104.173 46.7032 104.189 46.6901 104.202C46.6769 104.215 46.6613 104.226 46.644 104.233C46.6268 104.24 46.6083 104.243 46.5897 104.243H31.0009C30.9823 104.243 30.9638 104.24 30.9466 104.233C30.9293 104.226 30.9137 104.215 30.9005 104.202C30.8874 104.189 30.8771 104.173 30.8701 104.156C30.8632 104.139 30.8599 104.12 30.8602 104.102V58.3402C30.8599 58.3216 30.8632 58.3031 30.8701 58.2859C30.8771 58.2686 30.8874 58.253 30.9005 58.2398C30.9137 58.2267 30.9293 58.2164 30.9466 58.2094C30.9638 58.2025 30.9823 58.1991 31.0009 58.1995H46.6073C46.6259 58.1991 46.6444 58.2025 46.6616 58.2094C46.6788 58.2164 46.6945 58.2267 46.7076 58.2398C46.7208 58.253 46.7311 58.2686 46.7381 58.2859C46.745 58.3031 46.7483 58.3216 46.7479 58.3402V104.102H46.7304ZM118.657 64.1702L113.287 97.6683C113.288 97.7026 113.281 97.7368 113.266 97.7679C112.525 103.759 108.72 106.803 101.926 106.803H60.2948C58.2139 106.789 56.2052 106.038 54.6245 104.685C53.0437 103.332 51.9929 101.462 51.6581 99.4085C51.6345 99.2658 51.6012 99.1249 51.5585 98.9866V60.6077L52.6015 60.3675C52.6425 60.3675 52.663 60.347 52.7011 60.347C56.1789 59.2644 59.4651 57.6421 62.4393 55.5394C68.9901 50.89 72.4384 44.6615 72.4384 37.5277V22.4398C74.5214 22.0999 78.0897 21.9183 80.6737 23.8431C83.038 25.5863 84.2392 28.8909 84.2392 33.6605V51.2386C84.2407 51.876 84.4946 52.4869 84.9453 52.9377C85.3961 53.3884 86.007 53.6423 86.6444 53.6439H110.105C112.147 53.6608 114.115 54.4068 115.654 55.7474C116.832 56.778 117.727 58.0932 118.253 59.5677C118.778 61.0422 118.918 62.6267 118.657 64.1702Z" fill="black"/>
</svg>
