<svg width="150" height="150" viewBox="0 0 150 150" fill="none" xmlns="http://www.w3.org/2000/svg">
<path d="M99.6907 127.157L75 140.625L50.3093 127.157C42.1771 122.722 35.39 116.177 30.6615 108.212C25.9329 100.246 23.4375 91.1539 23.4375 81.8906V32.8125C29.6535 32.8125 35.6149 30.3432 40.0103 25.9478C44.4057 21.5524 46.875 15.591 46.875 9.375H103.125C103.125 15.591 105.594 21.5524 109.99 25.9478C114.385 30.3432 120.346 32.8125 126.562 32.8125V81.8906C126.563 91.1539 124.067 100.246 119.339 108.212C114.61 116.177 107.823 122.722 99.6907 127.157Z" fill="#F19EC3" stroke="black" stroke-width="1.875" stroke-linecap="round" stroke-linejoin="round"/>
<path d="M98.4375 64.4531H80.8594V46.875H69.1406V64.4531H51.5625V76.1719H69.1406V93.75H80.8594V76.1719H98.4375V64.4531Z" fill="white" stroke="black" stroke-width="1.875" stroke-linecap="round" stroke-linejoin="round"/>
</svg>
