<svg width="70" height="70" viewBox="0 0 70 70" fill="none" xmlns="http://www.w3.org/2000/svg">
<path d="M23.3361 35C23.3361 28.5569 28.5581 23.3324 35.0014 23.3324C41.4447 23.3324 46.6695 28.5569 46.6695 35C46.6695 41.4431 41.4447 46.6676 35.0014 46.6676C28.5581 46.6676 23.3361 41.4431 23.3361 35ZM17.0286 35C17.0286 44.926 25.075 52.9721 35.0014 52.9721C44.9278 52.9721 52.9742 44.926 52.9742 35C52.9742 25.074 44.9278 17.0279 35.0014 17.0279C25.075 17.0279 17.0286 25.074 17.0286 35ZM49.4855 16.3153C49.4852 17.146 49.7312 17.9581 50.1925 18.649C50.6537 19.3399 51.3095 19.8785 52.0768 20.1967C52.8442 20.5148 53.6887 20.5984 54.5035 20.4366C55.3183 20.2749 56.0668 19.8752 56.6545 19.288C57.2421 18.7009 57.6424 17.9527 57.8048 17.138C57.9672 16.3234 57.8844 15.4789 57.5668 14.7113C57.2492 13.9437 56.7111 13.2875 56.0206 12.8258C55.3301 12.364 54.5181 12.1173 53.6874 12.117H53.6857C52.5722 12.1175 51.5044 12.56 50.7169 13.3471C49.9294 14.1343 49.4865 15.2019 49.4855 16.3153ZM20.8608 63.4892C17.4483 63.3338 15.5935 62.7654 14.3609 62.2852C12.7268 61.649 11.5608 60.8913 10.3349 59.6672C9.10904 58.443 8.35021 57.2782 7.71683 55.6441C7.23633 54.4121 6.66791 52.5568 6.51278 49.1445C6.34309 45.4552 6.30921 44.347 6.30921 35.0003C6.30921 25.6536 6.34589 24.5484 6.51278 20.8561C6.66819 17.4437 7.24081 15.5921 7.71683 14.3564C8.35301 12.7224 9.11072 11.5564 10.3349 10.3306C11.5591 9.10476 12.724 8.34596 14.3609 7.7126C15.593 7.23212 17.4483 6.66372 20.8608 6.5086C24.5503 6.33892 25.6585 6.30504 35.0014 6.30504C44.3443 6.30504 45.4537 6.34172 49.1462 6.5086C52.5587 6.664 54.4104 7.2366 55.6461 7.7126C57.2802 8.34596 58.4462 9.10644 59.6721 10.3306C60.898 11.5548 61.654 12.7224 62.2902 14.3564C62.7707 15.5884 63.3391 17.4437 63.4942 20.8561C63.6639 24.5484 63.6978 25.6536 63.6978 35.0003C63.6978 44.347 63.6639 45.4521 63.4942 49.1445C63.3388 52.5568 62.7676 54.4116 62.2902 55.6441C61.654 57.2782 60.8963 58.4441 59.6721 59.6672C58.4479 60.8902 57.2802 61.649 55.6461 62.2852C54.414 62.7656 52.5587 63.334 49.1462 63.4892C45.4567 63.6588 44.3485 63.6927 35.0014 63.6927C25.6543 63.6927 24.5491 63.6588 20.8608 63.4892ZM20.571 0.21196C16.8449 0.38164 14.2988 0.97244 12.0752 1.83764C9.77239 2.73112 7.82295 3.9298 5.87492 5.87468C3.92688 7.81956 2.73123 9.772 1.83771 12.0747C0.972479 14.2996 0.381655 16.8442 0.211968 20.5702C0.0394816 24.302 0 25.4951 0 35C0 44.5049 0.0394816 45.698 0.211968 49.4298C0.381655 53.156 0.972479 55.7004 1.83771 57.9253C2.73123 60.2266 3.92716 62.1813 5.87492 64.1253C7.82267 66.0694 9.77239 67.2664 12.0752 68.1624C14.303 69.0276 16.8449 69.6184 20.571 69.788C24.305 69.9577 25.4961 70 35.0014 70C44.5067 70 45.6998 69.9605 49.4318 69.788C53.1582 69.6184 55.7026 69.0276 57.9276 68.1624C60.229 67.2664 62.1798 66.0702 64.1279 64.1253C66.0759 62.1804 67.2691 60.2266 68.1651 57.9253C69.0303 55.7004 69.6239 53.1558 69.7908 49.4298C69.9605 45.6952 70 44.5049 70 35C70 25.4951 69.9605 24.302 69.7908 20.5702C69.6211 16.844 69.0303 14.2982 68.1651 12.0747C67.2691 9.7734 66.0728 7.82264 64.1279 5.87468C62.1829 3.92672 60.229 2.73112 57.9304 1.83764C55.7026 0.97244 53.1579 0.37884 49.4346 0.21196C45.7026 0.04228 44.5095 0 35.0042 0C25.4989 0 24.305 0.03948 20.571 0.21196Z" fill="url(#paint0_radial_845_14)"/>
<defs>
<radialGradient id="paint0_radial_845_14" cx="0" cy="0" r="1" gradientUnits="userSpaceOnUse" gradientTransform="translate(9.30029 70.3307) scale(91.3828 91.3791)">
<stop offset="0.09" stop-color="#FA8F21"/>
<stop offset="0.78" stop-color="#D82D7E"/>
</radialGradient>
</defs>
</svg>
